# xmcd CD database file
#
# Track frame offsets:
#	150
#	105326
#	152609
#	207783
#	277177
#	318238
#
# Disc length: 4732 seconds
#
# Revision: 0
# Processed by: cddbd v1.5.1PL2 Copyright (c) Steve Scherf et al.
# Submitted via: CDex 1.51
#
DISCID=48127a06
DTITLE=Mike Stern - Rockin' the Pilot (early show)
DYEAR=2006
DGENRE=Jazz
TTITLE0=Tumble Home
TTITLE1=KT
TTITLE2=Wishing Well
TTITLE3=What Might Have Been
TTITLE4=Chatter
TTITLE5=Chromazone
EXTD=YEAR: 2006
EXTT0=
EXTT1=
EXTT2=
EXTT3=
EXTT4=
EXTT5=
PLAYORDER=
